<?xml version="1.0" encoding="UTF-8"?>
<svg id="Calque_2" data-name="Calque 2" xmlns="http://www.w3.org/2000/svg" xmlns:xlink="http://www.w3.org/1999/xlink" viewBox="0 0 815.71 813.18">
  <defs>
    <style>
      .cls-1 {
        fill: #fff;
      }

      .cls-1, .cls-2 {
        stroke-width: 0px;
      }

      .cls-2 {
        fill: url(#Dégradé_sans_nom_17);
      }

      .cls-3 {
        fill: #ece31e;
        font-family: FiraCodeNF-Bold, 'FiraCode Nerd Font';
        font-size: 24px;
        font-weight: 700;
        letter-spacing: -.05em;
      }
    </style>
    <radialGradient id="Dégradé_sans_nom_17" data-name="Dégradé sans nom 17" cx="407.85" cy="406.59" fx="407.85" fy="406.59" r="407.22" gradientUnits="userSpaceOnUse">
      <stop offset="0" stop-color="#37384e"/>
      <stop offset="1" stop-color="#292a3b"/>
    </radialGradient>
  </defs>
  <g id="Calque_1-2" data-name="Calque 1">
    <g>
      <rect class="cls-2" width="815.71" height="813.18"/>
      <g>
        <g>
          <g>
            <path class="cls-1" d="m431.74,451.11c-.05,6.55-3.53,10.62-10.38,10.65-7.29.04-10.58-4.18-10.62-11.19-.05-9.54.08-19.09-.11-28.63-.06-3.6-.08-7.52-1.46-10.7-1.08-2.5-4.26-5.66-6.48-5.64-2.21,0-6.03,3.43-6.29,5.69-1,8.59-.84,17.31-1.11,25.98-.16,5.04-.02,10.11-.56,15.11-.68,6.16-4.41,9.55-10.74,9.39-6.32-.16-9.95-3.67-10.2-9.92-.31-7.29-.08-14.59-.08-21.88h.19c0-7.01-.39-14.05.08-21.02,1-14.81,12.24-25.08,27.13-25.31,17.32-.26,29.24,8.85,30.24,24.57.9,14.25.5,28.6.39,42.9Z"/>
            <path class="cls-1" d="m557.2,479.53c-6.86,3.48-16.48,4.56-24.08,3-23.43-4.83-46.49-11.42-69.67-17.39-10.2-2.63-15.35-9.4-15.5-20.09-.06-4.77.18-9.55-.06-14.31-.32-6.66,1.76-9.66,8.9-7.15,4.18,1.47,8.62,3.07,12.94,3.07,3.95,0,9.22-.98,11.41-3.61,1.76-2.13,1.12-8.21-.73-11.07-22.86-35.14-46.07-70.07-69.36-104.93-4.93-7.36-11.76-7.19-16.77.3-23.14,34.62-46.26,69.27-68.96,104.17-1.97,3.03-2.35,8.69-.88,11.96,2.16,4.79,7.32,5.43,12.37,3.04,1.22-.58,2.77-.43,4.11-.82,19.05-5.57,16.51-3.87,16.59,12.93,0,19.48-3.2,23.44-22.21,28.22-20.79,5.22-41.53,10.62-62.31,15.87-18,4.55-32.55-3.22-37.77-20.01-3.11-10,.15-18.6,5.6-26.81,31.25-47.04,62.47-94.09,93.72-141.14,13.76-20.73,27.47-41.49,41.34-62.13,15.4-22.93,38.22-23.3,53.4-.51,45.41,68.15,90.63,136.43,135.81,204.74,10.62,16.07,7.71,34.78-7.88,42.66Z"/>
          </g>
          <g>
            <path class="cls-1" d="m188.96,512.03h12.72c7.09,0,12.37.56,15.83,1.69,3.46,1.12,6.44,3.03,8.92,5.72,2.2,2.34,3.84,5.04,4.9,8.1,1.07,3.06,1.6,6.52,1.6,10.39s-.53,7.41-1.6,10.48c-1.07,3.07-2.7,5.78-4.9,8.12-2.5,2.69-5.5,4.6-9,5.72-3.5,1.12-8.75,1.69-15.75,1.69h-12.72v-51.9Zm12.06,10.12v31.67h4.31c4.91,0,8.67-1.36,11.26-4.07,2.6-2.71,3.89-6.65,3.89-11.82s-1.29-9.06-3.88-11.75c-2.58-2.69-6.34-4.03-11.28-4.03h-4.31Z"/>
            <path class="cls-1" d="m276.64,544.35v3.55h-26.18c.25,2.92,1.2,5.11,2.83,6.57,1.63,1.46,3.91,2.19,6.83,2.19,2.36,0,4.78-.39,7.25-1.16,2.47-.78,5-1.95,7.6-3.53v9.59c-2.64,1.11-5.29,1.95-7.94,2.52-2.65.57-5.3.85-7.94.85-6.35,0-11.28-1.79-14.79-5.37-3.51-3.58-5.27-8.6-5.27-15.07s1.73-11.34,5.18-14.98c3.45-3.64,8.2-5.46,14.25-5.46,5.52,0,9.92,1.84,13.23,5.53,3.3,3.69,4.95,8.61,4.95,14.77Zm-11.51-4.14c0-2.36-.62-4.27-1.86-5.72-1.24-1.45-2.87-2.17-4.88-2.17-2.16,0-3.91.68-5.27,2.03-1.36,1.36-2.21,3.31-2.56,5.86h14.57Z"/>
            <path class="cls-1" d="m280.71,524.99h11.19l8.73,26.91,8.69-26.91h11.23l-13.77,38.94h-12.31l-13.77-38.94Z"/>
            <path class="cls-1" d="m361.84,544.35v3.55h-26.18c.26,2.92,1.2,5.11,2.83,6.57,1.63,1.46,3.91,2.19,6.83,2.19,2.36,0,4.78-.39,7.25-1.16,2.47-.78,5-1.95,7.6-3.53v9.59c-2.64,1.11-5.29,1.95-7.94,2.52-2.65.57-5.3.85-7.94.85-6.35,0-11.28-1.79-14.79-5.37-3.51-3.58-5.27-8.6-5.27-15.07s1.73-11.34,5.18-14.98c3.45-3.64,8.2-5.46,14.25-5.46,5.52,0,9.92,1.84,13.23,5.53,3.3,3.69,4.95,8.61,4.95,14.77Zm-11.51-4.14c0-2.36-.62-4.27-1.86-5.72-1.24-1.45-2.87-2.17-4.88-2.17-2.16,0-3.91.68-5.27,2.03-1.36,1.36-2.21,3.31-2.56,5.86h14.57Z"/>
            <path class="cls-1" d="m370.33,509.84h11.19v54.09h-11.19v-54.09Z"/>
            <path class="cls-1" d="m408.91,524.05c6.05,0,10.76,1.81,14.15,5.42,3.38,3.61,5.07,8.62,5.07,15.02s-1.69,11.4-5.07,15.02c-3.38,3.62-8.1,5.42-14.15,5.42s-10.75-1.81-14.17-5.42-5.13-8.62-5.13-15.02,1.71-11.4,5.13-15.02c3.42-3.62,8.14-5.42,14.17-5.42Zm0,8.9c-2.48,0-4.37.99-5.67,2.97-1.3,1.98-1.95,4.84-1.95,8.57s.65,6.59,1.95,8.57c1.3,1.98,3.19,2.97,5.67,2.97s4.33-.99,5.61-2.97,1.93-4.84,1.93-8.57-.64-6.59-1.93-8.57-3.16-2.97-5.61-2.97Z"/>
            <path class="cls-1" d="m447.47,558.3v20.44h-11.19v-53.74h11.19v5.7c1.55-2.27,3.27-3.95,5.14-5.02,1.88-1.08,4.03-1.62,6.47-1.62,4.31,0,7.86,1.91,10.64,5.72,2.78,3.81,4.17,8.72,4.17,14.72s-1.39,10.91-4.17,14.72c-2.78,3.81-6.33,5.72-10.64,5.72-2.43,0-4.59-.54-6.47-1.62-1.88-1.08-3.59-2.75-5.14-5.02Zm7.44-25.2c-2.39,0-4.22.98-5.51,2.94-1.29,1.96-1.93,4.78-1.93,8.46s.64,6.51,1.93,8.47c1.29,1.96,3.12,2.94,5.51,2.94s4.25-.97,5.51-2.92c1.26-1.95,1.89-4.77,1.89-8.48s-.63-6.53-1.89-8.48-3.1-2.92-5.51-2.92Z"/>
            <path class="cls-1" d="m517.1,544.35v3.55h-26.18c.26,2.92,1.2,5.11,2.83,6.57,1.63,1.46,3.91,2.19,6.83,2.19,2.36,0,4.78-.39,7.25-1.16,2.47-.78,5-1.95,7.6-3.53v9.59c-2.64,1.11-5.29,1.95-7.94,2.52-2.65.57-5.3.85-7.94.85-6.35,0-11.28-1.79-14.79-5.37-3.51-3.58-5.27-8.6-5.27-15.07s1.73-11.34,5.18-14.98c3.45-3.64,8.2-5.46,14.25-5.46,5.52,0,9.92,1.84,13.23,5.53,3.3,3.69,4.95,8.61,4.95,14.77Zm-11.51-4.14c0-2.36-.62-4.27-1.86-5.72-1.24-1.45-2.87-2.17-4.88-2.17-2.16,0-3.91.68-5.27,2.03-1.36,1.36-2.21,3.31-2.56,5.86h14.57Z"/>
            <path class="cls-1" d="m551.62,535.59c-1-.51-1.98-.89-2.94-1.13-.96-.24-1.94-.36-2.94-.36-2.87,0-5.09,1.03-6.64,3.08-1.55,2.05-2.33,4.99-2.33,8.81v17.94h-11.19v-38.94h11.19v6.4c1.44-2.55,3.09-4.41,4.95-5.58,1.87-1.17,4.11-1.76,6.73-1.76.37,0,.78.02,1.22.05.44.03,1.08.11,1.91.23l.03,11.26Z"/>
            <path class="cls-1" d="m568.23,512.03h6.95l-16.48,58.51h-6.92l16.44-58.51Z"/>
            <path class="cls-1" d="m581.97,530.1v-8.69l40.12,16.09v8.2l-40.12,16.1v-8.69l30.21-11.47-30.21-11.54Z"/>
          </g>
        </g>
        <text class="cls-3" transform="translate(341.37 607.47)"><tspan x="0" y="0" xml:space="preserve">    =&gt;the community</tspan></text>
      </g>
    </g>
  </g>
</svg>