<?xml version="1.0" encoding="UTF-8"?><svg id="uuid-4ea6c928-605e-4b8f-89b5-9bf8e1ed9f88" xmlns="http://www.w3.org/2000/svg" viewBox="0 0 677.7 104.62"><g id="uuid-ad9d4cb5-57ce-432b-aace-2f7510ac5e7f"><g><g><path d="m73.67,87.87c-.02,2.44-1.32,3.96-3.87,3.97-2.71.01-3.94-1.56-3.96-4.17-.02-3.56.03-7.11-.04-10.67-.02-1.34-.03-2.8-.55-3.99-.4-.93-1.59-2.11-2.41-2.1-.82,0-2.25,1.28-2.34,2.12-.37,3.2-.31,6.45-.41,9.68-.06,1.88,0,3.77-.21,5.63-.25,2.3-1.64,3.56-4,3.5-2.35-.06-3.71-1.37-3.8-3.69-.12-2.71-.03-5.43-.03-8.15h.07c0-2.61-.14-5.23.03-7.83.37-5.52,4.56-9.34,10.11-9.43,6.45-.1,10.89,3.3,11.27,9.15.34,5.31.19,10.65.14,15.98Z" style="fill:#fff;"/><path d="m120.4,98.46c-2.55,1.3-6.14,1.7-8.97,1.12-8.73-1.8-17.32-4.25-25.96-6.48-3.8-.98-5.72-3.5-5.77-7.48-.02-1.78.07-3.56-.02-5.33-.12-2.48.66-3.6,3.31-2.66,1.56.55,3.21,1.15,4.82,1.15,1.47,0,3.44-.37,4.25-1.35.66-.79.42-3.06-.27-4.12-8.52-13.09-17.16-26.1-25.84-39.09-1.84-2.74-4.38-2.68-6.25.11-8.62,12.9-17.23,25.8-25.69,38.81-.73,1.13-.88,3.24-.33,4.45.81,1.78,2.73,2.02,4.61,1.13.46-.21,1.03-.16,1.53-.3,7.1-2.08,6.15-1.44,6.18,4.82,0,7.26-1.19,8.73-8.28,10.51-7.75,1.94-15.47,3.96-23.21,5.91-6.71,1.69-12.13-1.2-14.07-7.46-1.16-3.73.06-6.93,2.09-9.99,11.64-17.52,23.27-35.05,34.91-52.58,5.13-7.72,10.23-15.46,15.4-23.15,5.74-8.54,14.24-8.68,19.89-.19,16.92,25.39,33.76,50.82,50.59,76.27,3.96,5.99,2.87,12.96-2.93,15.89Z" style="fill:#218366;"/></g><g><path d="m163.72,25.46h15.1c8.42,0,14.68.67,18.79,2,4.11,1.33,7.64,3.6,10.58,6.79,2.61,2.78,4.55,5.98,5.82,9.61,1.26,3.63,1.9,7.74,1.9,12.33s-.63,8.79-1.9,12.44c-1.27,3.64-3.2,6.86-5.82,9.63-2.97,3.19-6.53,5.45-10.68,6.79-4.15,1.33-10.38,2-18.69,2h-15.1V25.46Zm14.32,12v37.58h5.12c5.83,0,10.29-1.61,13.37-4.83,3.08-3.22,4.62-7.89,4.62-14.03s-1.53-10.75-4.6-13.94c-3.07-3.19-7.53-4.79-13.39-4.79h-5.12Z" style="fill:#fff;"/><path d="m267.76,63.82v4.21h-31.06c.3,3.46,1.42,6.06,3.36,7.8,1.94,1.73,4.64,2.6,8.11,2.6,2.81,0,5.67-.46,8.6-1.38,2.93-.92,5.93-2.32,9.01-4.19v11.39c-3.14,1.32-6.28,2.32-9.43,2.99-3.15.67-6.29,1.01-9.43,1.01-7.54,0-13.39-2.12-17.55-6.37-4.17-4.25-6.25-10.21-6.25-17.88s2.05-13.46,6.15-17.78c4.1-4.32,9.74-6.48,16.91-6.48,6.55,0,11.78,2.19,15.7,6.56,3.92,4.37,5.88,10.22,5.88,17.53Zm-13.65-4.91c0-2.8-.74-5.07-2.21-6.79-1.47-1.72-3.4-2.58-5.8-2.58-2.56,0-4.64.8-6.25,2.41-1.61,1.61-2.62,3.93-3.03,6.95h17.29Z" style="fill:#fff;"/><path d="m272.59,40.84h13.28l10.36,31.93,10.31-31.93h13.32l-16.34,46.2h-14.6l-16.34-46.2Z" style="fill:#fff;"/><path d="m368.87,63.82v4.21h-31.06c.3,3.46,1.42,6.06,3.36,7.8,1.94,1.73,4.64,2.6,8.11,2.6,2.81,0,5.67-.46,8.6-1.38,2.93-.92,5.93-2.32,9.01-4.19v11.39c-3.13,1.32-6.28,2.32-9.43,2.99-3.15.67-6.29,1.01-9.43,1.01-7.54,0-13.39-2.12-17.55-6.37-4.17-4.25-6.25-10.21-6.25-17.88s2.05-13.46,6.15-17.78c4.1-4.32,9.74-6.48,16.91-6.48,6.54,0,11.78,2.19,15.7,6.56,3.92,4.37,5.88,10.22,5.88,17.53Zm-13.66-4.91c0-2.8-.74-5.07-2.21-6.79-1.47-1.72-3.4-2.58-5.8-2.58-2.56,0-4.64.8-6.25,2.41-1.61,1.61-2.62,3.93-3.03,6.95h17.29Z" style="fill:#fff;"/><path d="m378.94,22.86h13.28v64.19h-13.28V22.86Z" style="fill:#fff;"/><path d="m424.73,39.73c7.18,0,12.77,2.15,16.79,6.44,4.01,4.29,6.02,10.23,6.02,17.82s-2.01,13.53-6.02,17.82c-4.02,4.29-9.61,6.44-16.79,6.44s-12.75-2.15-16.81-6.44-6.08-10.23-6.08-17.82,2.03-13.53,6.08-17.82c4.06-4.29,9.66-6.44,16.81-6.44Zm0,10.56c-2.94,0-5.18,1.18-6.72,3.53-1.54,2.35-2.31,5.74-2.31,10.17s.77,7.82,2.31,10.17c1.54,2.35,3.78,3.53,6.72,3.53s5.14-1.18,6.66-3.53,2.29-5.74,2.29-10.17-.76-7.82-2.29-10.17-3.75-3.53-6.66-3.53Z" style="fill:#fff;"/><path d="m470.48,80.37v24.26h-13.28v-63.78h13.28v6.77c1.84-2.7,3.88-4.68,6.11-5.96,2.23-1.28,4.79-1.92,7.67-1.92,5.12,0,9.32,2.26,12.62,6.79,3.3,4.52,4.95,10.35,4.95,17.47s-1.65,12.95-4.95,17.47c-3.3,4.52-7.51,6.79-12.62,6.79-2.89,0-5.45-.64-7.67-1.92-2.23-1.28-4.26-3.27-6.11-5.96Zm8.83-29.91c-2.83,0-5.01,1.16-6.54,3.49-1.53,2.32-2.29,5.67-2.29,10.04s.76,7.72,2.29,10.05c1.53,2.32,3.71,3.49,6.54,3.49s5.04-1.16,6.54-3.47c1.5-2.31,2.25-5.67,2.25-10.07s-.75-7.75-2.25-10.07-3.68-3.47-6.54-3.47Z" style="fill:#fff;"/><path d="m553.11,63.82v4.21h-31.06c.3,3.46,1.42,6.06,3.36,7.8,1.94,1.73,4.64,2.6,8.11,2.6,2.81,0,5.67-.46,8.6-1.38,2.93-.92,5.93-2.32,9.01-4.19v11.39c-3.13,1.32-6.28,2.32-9.43,2.99-3.15.67-6.29,1.01-9.43,1.01-7.54,0-13.39-2.12-17.55-6.37-4.17-4.25-6.25-10.21-6.25-17.88s2.05-13.46,6.15-17.78c4.1-4.32,9.74-6.48,16.91-6.48,6.54,0,11.78,2.19,15.7,6.56,3.92,4.37,5.88,10.22,5.88,17.53Zm-13.66-4.91c0-2.8-.74-5.07-2.21-6.79-1.47-1.72-3.4-2.58-5.8-2.58-2.56,0-4.64.8-6.25,2.41-1.61,1.61-2.62,3.93-3.03,6.95h17.29Z" style="fill:#fff;"/><path d="m594.08,53.43c-1.18-.6-2.34-1.05-3.49-1.34-1.14-.29-2.3-.43-3.49-.43-3.41,0-6.04,1.22-7.88,3.65-1.84,2.43-2.76,5.92-2.76,10.46v21.29h-13.28v-46.2h13.28v7.59c1.71-3.02,3.67-5.23,5.88-6.62,2.21-1.39,4.87-2.08,7.98-2.08.44,0,.92.02,1.44.06.52.04,1.28.13,2.27.27l.04,13.37Z" style="fill:#fff;"/><path d="m613.8,25.46h8.25l-19.55,69.43h-8.21l19.51-69.43Z" style="fill:#fff;"/><path d="m630.09,46.91v-10.31l47.61,19.1v9.74l-47.61,19.1v-10.31l35.85-13.61-35.85-13.7Z" style="fill:#fff;"/></g></g></g></svg>